<svg width="24" height="24" viewBox="0 0 24 24" fill="none" xmlns="http://www.w3.org/2000/svg">
<path d="M7.18926 5.00716C7.34556 4.93524 7.51611 4.89795 7.68879 4.89795C7.86146 4.89795 8.03201 4.93524 8.18832 5.00716C8.414 5.12108 8.62019 5.26876 8.7995 5.44488L11.1502 7.4607H12.831L15.1817 5.44488C15.3613 5.26904 15.5674 5.1214 15.7929 5.00716C15.9598 4.94875 16.138 4.92809 16.3142 4.94672C16.4904 4.96535 16.6601 5.02279 16.8104 5.11475C16.9608 5.2067 17.0879 5.33079 17.1824 5.47772C17.277 5.62466 17.3363 5.79063 17.3561 5.96323C17.3684 6.24273 17.2765 6.51706 17.0976 6.73501C16.9336 6.89747 16.761 7.05128 16.5804 7.19576C16.4765 7.29073 16.3665 7.37922 16.2513 7.4607H17.7205C18.3761 7.48137 18.9969 7.75454 19.4483 8.22095C19.9275 8.66214 20.2103 9.27036 20.2358 9.91423V16.5376C20.253 16.8728 20.2333 17.2088 20.177 17.5398C20.1004 17.8717 19.957 18.1853 19.7552 18.4622C19.5534 18.7391 19.2972 18.9738 19.0016 19.1524C18.5956 19.3979 18.127 19.5257 17.65 19.521H6.86015C6.50645 19.5387 6.15184 19.5194 5.80233 19.4634C5.46763 19.3862 5.15191 19.2446 4.87348 19.0469C4.59504 18.8491 4.35944 18.5992 4.18033 18.3115C3.92102 17.9163 3.78236 17.4567 3.7807 16.9869V10.4326C3.75051 10.1146 3.75051 9.79451 3.7807 9.47651C3.88779 8.92891 4.17618 8.43121 4.60116 8.06052C5.02615 7.68984 5.56402 7.46686 6.13143 7.42614H7.67116C7.42432 7.25336 7.21276 7.04601 6.98944 6.86171C6.85738 6.74282 6.75483 6.59589 6.68964 6.43217C6.62444 6.26845 6.59834 6.09228 6.61332 5.91715C6.62697 5.73111 6.68651 5.55109 6.78683 5.39258C6.88716 5.23407 7.02525 5.1018 7.18926 5.00716ZM6.91891 9.47651C6.69993 9.5145 6.49645 9.6126 6.33209 9.75941C6.16772 9.90621 6.04923 10.0957 5.99037 10.3059C5.96931 10.451 5.96931 10.5984 5.99037 10.7436V16.1921C5.97775 16.4447 6.05033 16.6944 6.19691 16.9025C6.34348 17.1107 6.5559 17.2659 6.80137 17.344C6.96412 17.3981 7.13491 17.4253 7.30677 17.4246H16.8625C17.0965 17.4332 17.3278 17.3731 17.5268 17.252C17.7257 17.1309 17.8832 16.9544 17.979 16.745C18.0802 16.5045 18.1205 16.2437 18.0966 15.9847V10.9164C18.1236 10.733 18.1236 10.5468 18.0966 10.3635C18.0446 10.1815 17.9477 10.0149 17.8144 9.87829C17.6812 9.74169 17.5157 9.63931 17.3326 9.58018C17.099 9.49919 16.8514 9.46397 16.6039 9.47651H7.47133C7.28741 9.4638 7.10282 9.4638 6.91891 9.47651Z" fill="black"/>
<path d="M8.84658 11.2733C9.14126 11.2587 9.43076 11.3533 9.65758 11.5383C9.78362 11.6439 9.88544 11.7744 9.95634 11.9213C10.0272 12.0682 10.0656 12.2282 10.069 12.3907V13.5426C10.0795 13.8075 9.99647 14.0679 9.83388 14.2798C9.71461 14.4247 9.56126 14.5392 9.38697 14.6134C9.21268 14.6875 9.02264 14.7191 8.83313 14.7056C8.64363 14.692 8.46031 14.6336 8.29889 14.5353C8.13747 14.4371 8.00275 14.302 7.90629 14.1415C7.78405 13.8988 7.73125 13.6281 7.7535 13.3582V12.2064C7.79277 11.9578 7.91398 11.7286 8.09863 11.5539C8.28327 11.3792 8.5212 11.2685 8.77606 11.2388L8.84658 11.2733ZM14.9232 11.2733C15.0785 11.2624 15.2346 11.2818 15.3822 11.3305C15.5298 11.3792 15.6661 11.4561 15.7831 11.5569C15.9002 11.6576 15.9956 11.7802 16.0638 11.9174C16.1321 12.0546 16.1719 12.2037 16.1808 12.3561V13.508C16.1998 13.7729 16.1384 14.0374 16.0045 14.2683C15.8966 14.4227 15.7519 14.549 15.5829 14.6363C15.414 14.7236 15.2259 14.7692 15.0349 14.7692C14.8439 14.7692 14.6557 14.7236 14.4868 14.6363C14.3178 14.549 14.1731 14.4227 14.0652 14.2683C13.9169 14.0216 13.8511 13.7356 13.8771 13.4504V12.2985C13.9068 12.0416 14.0237 11.8019 14.2092 11.618C14.3947 11.4342 14.6379 11.3168 14.8997 11.2848L14.9232 11.2733Z" fill="black"/>
</svg>
