<svg width="25" height="24" viewBox="0 0 25 24" fill="none" xmlns="http://www.w3.org/2000/svg">
<path d="M7.31899 5.00691C7.47747 4.93499 7.65039 4.89771 7.82547 4.89771C8.00054 4.89771 8.17346 4.93499 8.33194 5.00691C8.56076 5.12084 8.76982 5.26851 8.95162 5.44463L11.335 7.46046H13.0392L15.4226 5.44463C15.6046 5.2688 15.8136 5.12115 16.0422 5.00691C16.2115 4.9485 16.3922 4.92784 16.5708 4.94647C16.7495 4.96511 16.9215 5.02255 17.0739 5.1145C17.2263 5.20646 17.3553 5.33054 17.4511 5.47748C17.5469 5.62441 17.6071 5.79039 17.6272 5.96299C17.6397 6.24249 17.5465 6.51681 17.365 6.73476C17.1988 6.89723 17.0238 7.05103 16.8407 7.19552C16.7353 7.29049 16.6239 7.37898 16.507 7.46046H17.9966C18.6613 7.48113 19.2908 7.7543 19.7485 8.22071C20.2343 8.66189 20.5211 9.27011 20.5469 9.91399V16.5374C20.5644 16.8725 20.5444 17.2085 20.4873 17.5395C20.4097 17.8715 20.2643 18.1851 20.0596 18.462C19.855 18.7389 19.5953 18.9735 19.2956 19.1522C18.8839 19.3976 18.4088 19.5254 17.9251 19.5208H6.9853C6.62669 19.5385 6.26715 19.5192 5.91278 19.4632C5.57343 19.386 5.25332 19.2444 4.97102 19.0466C4.68871 18.8489 4.44983 18.599 4.26823 18.3113C4.00532 17.9161 3.86473 17.4565 3.86304 16.9866V10.4323C3.83244 10.1143 3.83244 9.79427 3.86304 9.47626C3.97163 8.92866 4.26402 8.43096 4.69492 8.06028C5.12581 7.68959 5.67116 7.46662 6.24645 7.4259H7.80759C7.55732 7.25312 7.34282 7.04577 7.1164 6.86146C6.9825 6.74257 6.87852 6.59564 6.81242 6.43193C6.74632 6.26821 6.71986 6.09204 6.73505 5.91691C6.74889 5.73086 6.80926 5.55085 6.91097 5.39234C7.01269 5.23382 7.15271 5.10156 7.31899 5.00691ZM7.04488 9.47626C6.82286 9.51426 6.61655 9.61236 6.4499 9.75916C6.28326 9.90597 6.16312 10.0955 6.10344 10.3056C6.08209 10.4508 6.08209 10.5982 6.10344 10.7433V16.1918C6.09065 16.4444 6.16423 16.6941 6.31284 16.9023C6.46145 17.1105 6.67682 17.2656 6.92571 17.3437C7.09072 17.3978 7.26389 17.4251 7.43814 17.4243H17.1267C17.364 17.433 17.5985 17.3729 17.8002 17.2518C18.0019 17.1307 18.1616 16.9541 18.2588 16.7447C18.3613 16.5043 18.4022 16.2435 18.378 15.9845V10.9161C18.4053 10.7328 18.4053 10.5466 18.378 10.3632C18.3252 10.1813 18.227 10.0146 18.0919 9.87805C17.9568 9.74145 17.789 9.63907 17.6034 9.57993C17.3665 9.49895 17.1154 9.46372 16.8645 9.47626H7.60498C7.41851 9.46355 7.23135 9.46355 7.04488 9.47626Z" fill="black"/>
<path d="M8.9993 11.2733C9.29807 11.2587 9.5916 11.3533 9.82157 11.5383C9.94937 11.6439 10.0526 11.7744 10.1245 11.9213C10.1964 12.0682 10.2353 12.2282 10.2387 12.3907V13.5426C10.2494 13.8075 10.1652 14.0679 10.0003 14.2798C9.8794 14.4247 9.72392 14.5392 9.5472 14.6134C9.37048 14.6875 9.1778 14.7191 8.98566 14.7056C8.79353 14.692 8.60766 14.6336 8.44399 14.5353C8.28033 14.4371 8.14374 14.302 8.04593 14.1415C7.92199 13.8988 7.86846 13.6281 7.89102 13.3582V12.2064C7.93083 11.9578 8.05373 11.7286 8.24094 11.5539C8.42816 11.3792 8.66939 11.2685 8.9278 11.2388L8.9993 11.2733ZM15.1604 11.2733C15.3179 11.2624 15.4761 11.2818 15.6258 11.3305C15.7755 11.3792 15.9136 11.4561 16.0323 11.5569C16.1509 11.6576 16.2477 11.7802 16.3169 11.9174C16.3861 12.0546 16.4264 12.2037 16.4355 12.3561V13.508C16.4547 13.7729 16.3925 14.0374 16.2568 14.2683C16.1473 14.4227 16.0006 14.549 15.8293 14.6363C15.658 14.7236 15.4673 14.7692 15.2736 14.7692C15.08 14.7692 14.8892 14.7236 14.7179 14.6363C14.5466 14.549 14.3999 14.4227 14.2905 14.2683C14.1401 14.0216 14.0734 13.7356 14.0998 13.4504V12.2985C14.1298 12.0416 14.2484 11.8019 14.4365 11.618C14.6245 11.4342 14.8711 11.3168 15.1366 11.2848L15.1604 11.2733Z" fill="black"/>
</svg>
