<svg width="52" height="50" viewBox="0 0 52 50" fill="none" xmlns="http://www.w3.org/2000/svg">
<path d="M22.9619 17.8921H17.3766L20.425 12.5746H17.4584L21.1001 4.98682H23.1255L20.2613 10.5703H21.5502L22.6754 8.5864H24.7214L20.5477 15.9696H23.1869L22.9619 17.8921ZM32.1071 23.1688H22.4504L22.655 21.2258H26.5217L27.9539 7.95238H24.5781L24.7623 5.94807H33.6415L33.4574 7.95238H29.9793L28.5676 21.2258H32.3116L32.1071 23.1688ZM22.3686 21.6349L16.5991 22.8007L16.7833 20.8168L22.5527 19.651L22.3686 21.6349Z" fill="white"/>
<path d="M51.2487 5.41631L51.0646 7.33882H42.2058L39.362 12.1042H49.346L48.1594 23.496H36.2522L37.0501 15.9492L35.884 17.8921H34.2063L39.7098 7.33882H35.884L36.109 5.41631H51.2487ZM38.5027 21.4304H46.3385L47.0955 14.1289H39.2802L38.5027 21.4304Z" fill="white"/>
<path d="M30.7568 47.362H17.929L19.6884 30.6321H32.5162L30.7568 47.362ZM21.5707 32.6365L21.0796 37.8109H29.6929L30.2044 32.6365H21.5707ZM20.8546 39.8152L20.2408 45.3577H28.8745L29.4678 39.8152H20.8546Z" fill="white"/>
<path d="M40.5282 37.1564L40.3031 39.263L38.6459 39.8152L37.7458 48.3642H35.352L34.9019 46.4621H36.0272L36.641 40.4901L34.5951 41.1855L34.7997 39.0993L36.866 38.404L37.2957 34.109H35.352L35.5771 32.1865H37.5002L37.7867 29.405H39.7507L39.4643 32.1865H41.0806L40.8555 34.109H39.2597L38.871 37.7086L40.5282 37.1564ZM48.5481 31.757H43.6175L43.0446 37.1768H50.1644L49.9598 38.9971L49.878 39.6515L49.8166 40.306L47.1569 43.5784L49.5097 48.4051H47.9139L45.9703 45.0509L43.2697 48.4051H39.9144L41.8376 29.9368H50.7168L50.0621 36.2974H46.093L45.7657 34.4567H48.2821L48.5481 31.757ZM47.9139 39.6515L47.9753 38.9971H42.881L41.9194 47.9756L45.111 43.5579L43.106 40.081H45.4588L46.3181 41.8604L47.9139 39.6515Z" fill="white"/>
<path fill-rule="evenodd" clip-rule="evenodd" d="M12.7869 6.46936L12.7869 2.2085H0L5.1637e-06 19.252H6.39347L12.7869 6.46936Z" fill="white"/>
<path fill-rule="evenodd" clip-rule="evenodd" d="M-1.94461e-05 44.8173L-1.04904e-05 49.0781L12.7869 49.0781L12.7868 32.0347L6.39339 32.0347L-1.94461e-05 44.8173Z" fill="white"/>
<path fill-rule="evenodd" clip-rule="evenodd" d="M0 35.2958V35.3074H3.13002L12.7869 16.0003V15.9888H9.65686L0 35.2958Z" fill="#F50000"/>
</svg>
