<svg width="24" height="24" viewBox="0 0 24 24" fill="none" xmlns="http://www.w3.org/2000/svg">
<path d="M4 20V4H20V20H4Z" stroke="black"/>
<path d="M4 8V4H6V8H4Z" fill="black" fill-opacity="0.22" stroke="black"/>
<path d="M18 8V4H20V8H18Z" fill="black" fill-opacity="0.22" stroke="black"/>
<path d="M11 8V4H13V8H11Z" fill="black" fill-opacity="0.22" stroke="black"/>
<mask id="mask0_402_782" style="mask-type:luminance" maskUnits="userSpaceOnUse" x="3" y="7" width="18" height="14">
<path d="M3.5 7.5H20.5V20.5H3.5V7.5Z" fill="white"/>
</mask>
<g mask="url(#mask0_402_782)">
<path d="M4 8H20V20H4V8Z" stroke="black"/>
<line x1="15.8674" y1="7.33914" x2="3.8674" y2="20.3391" stroke="black"/>
<line x1="11.8674" y1="7.33914" x2="-0.132598" y2="20.3391" stroke="black"/>
<line x1="7.8674" y1="7.33914" x2="-4.1326" y2="20.3391" stroke="black"/>
<line x1="19.8674" y1="7.33914" x2="7.8674" y2="20.3391" stroke="black"/>
<line x1="23.8674" y1="7.33914" x2="11.8674" y2="20.3391" stroke="black"/>
<line x1="27.8674" y1="7.33914" x2="15.8674" y2="20.3391" stroke="black"/>
</g>
</svg>
