<svg width="652" height="321" viewBox="0 0 652 321" fill="none" xmlns="http://www.w3.org/2000/svg">
<path d="M485.9 311.458H379.31L393.93 172.398H500.52L485.9 311.458ZM409.57 189.058L405.49 232.068H477.06L481.31 189.058H409.57ZM403.62 248.728L398.52 294.798H470.26L475.19 248.728H403.62ZM567.094 226.628L565.224 244.138L551.454 248.728L543.974 319.788H524.084L520.344 303.978H529.694L534.794 254.338L517.794 260.118L519.494 242.778L536.664 236.998L540.234 201.298H524.084L525.954 185.318H541.934L544.314 162.198H560.634L558.254 185.318H571.684L569.814 201.298H556.554L553.324 231.218L567.094 226.628ZM633.734 181.748H592.764L588.004 226.798H647.164L645.464 241.928L644.784 247.368L644.274 252.808L622.174 280.008L641.724 320.128H628.464L612.314 292.248L589.874 320.128H561.994L577.974 166.618H651.754L646.314 219.488H613.334L610.614 204.188H631.524L633.734 181.748ZM628.464 247.368L628.974 241.928H586.644L578.654 316.558L605.174 279.838L588.514 250.938H608.064L615.204 265.728L628.464 247.368Z" fill="white"/>
<path d="M53.13 108.148H6.72L32.05 63.9481H7.4L37.66 0.878116H54.49L30.69 47.2881H41.4L50.75 30.7981H67.75L33.07 92.1681H55L53.13 108.148ZM129.12 152.008H48.88L50.58 135.858H82.71L94.61 25.5281H66.56L68.09 8.86811H141.87L140.34 25.5281H111.44L99.71 135.858H130.82L129.12 152.008ZM48.2 139.258L0.26 148.948L1.79 132.458L49.73 122.768L48.2 139.258ZM288.174 4.44812L286.644 20.4281H213.034L189.404 60.0381H272.364L262.504 154.728H163.564L170.194 91.9981L160.504 108.148H146.564L192.294 20.4281H160.504L162.374 4.44812H288.174ZM182.264 137.558H247.374L253.664 76.8681H188.724L182.264 137.558Z" fill="#BA0000"/>
<line x1="406.939" y1="99.2477" x2="203.939" y2="262.248" stroke="white" stroke-width="3"/>
<line x1="455.939" y1="81.2477" x2="252.939" y2="244.248" stroke="#BA0000" stroke-width="3"/>
</svg>
