<svg width="673" height="374" viewBox="0 0 673 374" fill="none" xmlns="http://www.w3.org/2000/svg">
<path d="M485.9 351.458H379.31L393.93 212.398H500.52L485.9 351.458ZM409.57 229.058L405.49 272.068H477.06L481.31 229.058H409.57ZM403.62 288.728L398.52 334.798H470.26L475.19 288.728H403.62ZM567.094 266.628L565.224 284.138L551.454 288.728L543.974 359.788H524.084L520.344 343.978H529.694L534.794 294.338L517.794 300.118L519.494 282.778L536.664 276.998L540.234 241.298H524.084L525.954 225.318H541.934L544.314 202.198H560.634L558.254 225.318H571.684L569.814 241.298H556.554L553.324 271.218L567.094 266.628ZM633.734 221.748H592.764L588.004 266.798H647.164L645.464 281.928L644.784 287.368L644.274 292.808L622.174 320.008L641.724 360.128H628.464L612.314 332.248L589.874 360.128H561.994L577.974 206.618H651.754L646.314 259.488H613.334L610.614 244.188H631.524L633.734 221.748ZM628.464 287.368L628.974 281.928H586.644L578.654 356.558L605.174 319.838L588.514 290.938H608.064L615.204 305.728L628.464 287.368Z" fill="white"/>
<path d="M53.13 148.148H6.72L32.05 103.948H7.4L37.66 40.8781H54.49L30.69 87.2881H41.4L50.75 70.7981H67.75L33.07 132.168H55L53.13 148.148ZM129.12 192.008H48.88L50.58 175.858H82.71L94.61 65.5281H66.56L68.09 48.8681H141.87L140.34 65.5281H111.44L99.71 175.858H130.82L129.12 192.008ZM48.2 179.258L0.26 188.948L1.79 172.458L49.73 162.768L48.2 179.258ZM288.174 44.4481L286.644 60.4281H213.034L189.404 100.038H272.364L262.504 194.728H163.564L170.194 131.998L160.504 148.148H146.564L192.294 60.4281H160.504L162.374 44.4481H288.174ZM182.264 177.558H247.374L253.664 116.868H188.724L182.264 177.558Z" fill="#BA0000"/>
<line x1="406.939" y1="139.248" x2="203.939" y2="302.248" stroke="white" stroke-width="3"/>
<line x1="455.939" y1="121.248" x2="252.939" y2="284.248" stroke="#BA0000" stroke-width="3"/>
</svg>
