<svg width="429" height="318" viewBox="0 0 429 318" fill="none" xmlns="http://www.w3.org/2000/svg">
<path d="M202.908 138.352L201.468 152.048H193.18L194.492 139.52L195.612 138.352H202.908ZM196.028 139.856L194.908 150.56H200.06L201.18 139.856H196.028ZM212.175 141.936L211.119 152.048H203.695L204.639 143.008L205.679 141.936H212.175ZM206.159 143.424L205.423 150.56H209.711L210.447 143.424H206.159ZM222.107 141.904L221.131 151.088L221.051 151.968H215.083L214.715 155.568H213.147L213.515 151.968L213.675 150.48L214.571 141.904H222.107ZM220.379 143.392H215.979L215.243 150.48H219.643L220.379 143.392ZM231.534 141.936L231.294 144.272H229.726L229.806 143.424H225.39L225.118 146.096H231.086L230.622 150.56L230.462 152.048H223.31L223.07 150.56H229.054L229.358 147.6H223.39L223.822 143.424L223.982 141.936H231.534ZM235.1 148.464H233.532L234.588 138.384H236.156L235.1 148.464ZM234.892 150.464L234.716 152.032H233.164L233.324 150.464H234.892Z" fill="black"/>
</svg>
